<?xml version="1.0" encoding="UTF-8"?>
<svg id="Capa_2" xmlns="http://www.w3.org/2000/svg" xmlns:xlink="http://www.w3.org/1999/xlink" viewBox="0 0 672.91 494.05">
  <defs>
    <style>
      .cls-1 {
        fill: url(#Degradado_sin_nombre_22);
        filter: url(#drop-shadow-1);
      }
    </style>
    <linearGradient id="Degradado_sin_nombre_22" data-name="Degradado sin nombre 22" x1="-.37" y1="317.65" x2="264.83" y2="317.65" gradientTransform="translate(-12.39 13.36) rotate(-4.88)" gradientUnits="userSpaceOnUse">
      <stop offset="0" stop-color="#93278f"/>
      <stop offset=".13" stop-color="#8f2b91"/>
      <stop offset=".26" stop-color="#873898"/>
      <stop offset=".4" stop-color="#784ea3"/>
      <stop offset=".55" stop-color="#636cb3"/>
      <stop offset=".69" stop-color="#4993c7"/>
      <stop offset=".84" stop-color="#28c3e0"/>
      <stop offset=".99" stop-color="#02fbfc"/>
      <stop offset="1" stop-color="aqua"/>
    </linearGradient>
    <filter id="drop-shadow-1" x="0" y="175.05" width="302" height="319" filterUnits="userSpaceOnUse">
      <feOffset dx="10" dy="10"/>
      <feGaussianBlur result="blur" stdDeviation="5"/>
      <feFlood flood-color="#211f1f" flood-opacity=".75"/>
      <feComposite in2="blur" operator="in"/>
      <feComposite in="SourceGraphic"/>
    </filter>
  </defs>
  <g id="Capa_1-2" data-name="Capa_1">
    <g>
      <g>
        <path d="M203.75,10.45l38.82,93.31,38.82-93.31h62.17v178.72h-51.25v-97.9l-30.45,80.56h-38.57l-30.45-80.56v97.9h-51.25V10.45h62.17Z"/>
        <path d="M505.45,119.31c0,43.6-30.7,71.89-78.41,71.89s-78.41-28.3-78.41-71.89,30.7-71.64,78.41-71.64,78.41,28.04,78.41,71.64ZM406.24,120.08c0,16.32,8.12,27.02,20.81,27.02s20.81-10.71,20.81-27.02-8.12-27.02-20.81-27.02-20.81,10.71-20.81,27.02Z"/>
        <path d="M669.11,120.33c0,43.09-24.36,70.87-62.17,70.87-14.97,0-27.66-5.86-36.79-16.32v14.28h-57.09V0h57.09v63.74c8.88-10.45,21.06-16.06,35.27-16.06,38.57,0,63.69,28.55,63.69,72.66ZM611.51,118.8c0-16.32-8.12-27.02-20.81-27.02s-20.55,10.71-20.55,27.02,8.12,27.02,20.55,27.02,20.81-10.71,20.81-27.02Z"/>
      </g>
      <g>
        <path d="M411.05,234.92v46.66h-50.75v132.06h-58.87v-132.06h-50.49v-46.66h160.11Z"/>
        <path d="M537.41,356.78h-90.33c3.81,10.96,11.93,16.57,23.09,16.57,9.64,0,19.54-4.33,28.17-12.49l29.69,29.32c-14.72,16.32-36.03,25.49-62.93,25.49-47.45,0-75.61-28.04-75.61-71.13s29.43-72.4,74.09-72.4c48.46,0,76.88,33.14,73.84,84.64ZM464.08,310.38c-9.9,0-15.99,8.16-18.27,19.88h34.51c.76-11.47-6.34-19.88-16.24-19.88Z"/>
        <path d="M609.72,318.54c-11.16,0-18.27,10.2-18.27,25.75s7.11,26,18.27,26c8.12,0,13.96-4.59,17-15.04l46.18,21.42c-10.15,24.73-34.51,39.01-66.23,39.01-44.15,0-72.82-28.04-72.82-71.13s28.93-72.4,73.33-72.4c30.19,0,54.3,14.79,65.72,40.28l-45.42,19.38c-3.55-8.41-9.64-13.26-17.76-13.26Z"/>
      </g>
      <path class="cls-1" d="M45.39,187.94c15.26,6.12,29.93,12.64,43.66,21.45,20.92,13.41,40.62,28.54,60.23,43.79,1.71,1.33,2.54,1.24,3.93-.36,12.63-14.56,25.58-28.83,39.73-41.95,8.15-7.56,16.42-15.12,26.46-20.09,7.15-3.54,14.61-6.51,22.1-9.24,4.81-1.76,9.91-1.51,14.75.53,6,2.52,9.68,7.22,11.69,13.24.91,2.73,1.28,5.64,1.74,8.5.09.55-.4,1.55-.88,1.78-7.83,3.76-14.25,9.41-20.47,15.32-12.51,11.89-23.21,25.35-33.46,39.2-6.7,9.05-13.23,18.23-19.95,27.28-1.25,1.68-.99,2.5.46,3.86,12.62,11.85,25.41,23.55,37.64,35.8,10.78,10.79,20.81,22.32,29.45,34.98,5.4,7.92,10.04,16.23,12.35,25.64,1.47,5.98,2.92,11.98,1.36,18.22-1.06,4.22-3.32,7.56-6.96,9.93-2.57,1.67-5.21,2.5-8.39,1.51-3.68-1.14-7.51-1.75-11.24-2.74-1.06-.28-2.18-.9-2.94-1.69-18.67-19.56-38.32-38.06-59.61-54.71-7.87-6.16-16.25-11.66-24.4-17.45-.55-.39-1.19-.67-2.03-1.14-25.63,40.7-49.08,82.41-64.81,128.64-6.23-2.5-12.32-4.69-18.19-7.37-10.29-4.7-19.44-11.26-28.2-18.34-3.89-3.15-6.92-7.11-8.77-11.87-2.92-7.49-2.41-15.07-.42-22.63,2.9-10.99,8.54-20.66,14.63-30.09,13.63-21.11,29.44-40.6,44.91-60.32,2.09-2.66,4.18-5.31,6.35-8.07-.27-.25-.46-.53-.73-.68-21.61-12.09-43.13-24.33-64.88-36.15-7.44-4.05-14.76-8.05-20.55-14.38-8.18-8.94-13.09-19.39-14.45-31.49-.71-6.31-.55-12.61.94-18.77.97-4,4.42-13.96,7.27-16.83,5.63-5.65,9.16-12.3,31.67-3.29Z"/>
    </g>
  </g>
</svg>